<?xml version="1.0" standalone="no"?>
<!DOCTYPE svg PUBLIC "-//W3C//DTD SVG 20010904//EN"
 "http://www.w3.org/TR/2001/REC-SVG-20010904/DTD/svg10.dtd">
<svg version="1.0" xmlns="http://www.w3.org/2000/svg"
 width="728.000000pt" height="596.000000pt" viewBox="0 0 728.000000 596.000000"
 preserveAspectRatio="xMidYMid meet">

<g transform="translate(0.000000,596.000000) scale(0.100000,-0.100000)"
fill="#000000" stroke="none">
<path d="M6062 4297 c-6 -7 -24 -64 -41 -127 -16 -63 -37 -140 -45 -170 -160
-599 -157 -590 -101 -255 20 116 43 242 51 280 28 132 28 132 5 147 -11 7 -21
23 -21 35 0 47 -28 46 -197 -6 -367 -114 -350 -107 -364 -149 -6 -20 -29 -84
-49 -142 -21 -58 -59 -164 -85 -237 -30 -83 -52 -130 -59 -127 -7 3 -40 -4
-74 -15 -70 -21 -71 -16 -10 49 18 20 59 66 92 103 55 63 58 70 53 107 -8 58
-62 169 -105 213 -61 62 -134 70 -252 27 -84 -31 -197 -100 -267 -164 -35 -32
-66 -56 -69 -54 -2 3 0 17 6 32 10 28 -1 66 -20 66 -6 0 -10 10 -10 23 0 27
-17 47 -39 47 -9 0 -80 -23 -158 -51 -152 -55 -148 -52 -172 -139 l-9 -35 -1
47 c-1 26 -7 51 -14 55 -7 4 -17 22 -22 38 -15 44 -41 43 -182 -5 -93 -32
-127 -40 -136 -31 -14 14 -48 14 -79 1 -111 -47 -265 -101 -279 -97 -9 3 -102
-15 -205 -39 -104 -25 -251 -59 -327 -76 -76 -17 -145 -36 -153 -43 -13 -9
-17 -44 -21 -186 -5 -154 -4 -176 11 -188 9 -7 16 -22 16 -32 0 -25 27 -49 47
-42 9 4 14 2 12 -4 -6 -17 -202 -253 -207 -249 -3 4 1 50 43 409 29 251 30
280 11 296 -7 6 -16 25 -20 41 -8 40 -29 39 -187 -6 -68 -19 -168 -48 -222
-63 -54 -16 -103 -33 -108 -38 -5 -5 -19 -39 -32 -76 -27 -76 -37 -91 -37 -56
0 13 -7 35 -15 49 -7 14 -20 39 -28 56 -21 45 -64 80 -114 94 -65 19 -247 7
-368 -24 -108 -27 -304 -91 -316 -103 -4 -5 -24 -102 -44 -217 -38 -219 -188
-976 -205 -1036 -14 -48 -13 -86 3 -102 8 -7 17 -25 20 -40 9 -34 48 -43 155
-33 121 10 220 33 312 72 81 34 191 103 219 137 20 24 41 20 41 -8 0 -48 20
-52 158 -27 243 43 233 40 244 72 13 37 29 33 40 -9 12 -43 32 -42 197 13 73
25 137 45 141 45 5 0 10 -12 12 -26 7 -60 4 -60 483 36 209 42 311 67 366 90
74 32 76 32 97 15 11 -10 19 -22 16 -27 -11 -18 17 -48 46 -48 17 0 30 4 30 8
0 9 222 122 239 122 18 0 29 28 47 115 10 50 21 94 25 99 4 5 13 -11 19 -34
15 -54 70 -161 88 -167 7 -3 78 25 158 63 143 67 144 68 155 109 5 22 11 44
13 49 1 5 15 -17 31 -48 35 -70 95 -132 135 -141 17 -4 30 -10 30 -14 0 -5
-906 -307 -1038 -346 -22 -6 -22 -6 6 42 16 26 41 67 55 91 15 23 24 42 20 42
-8 0 -594 -190 -701 -227 -40 -14 -76 -22 -80 -19 -3 4 -2 10 3 14 26 19 145
162 135 162 -11 0 -423 -132 -722 -231 -65 -21 -120 -39 -124 -39 -7 0 28 44
78 98 22 24 38 45 36 47 -2 3 -132 -37 -289 -89 -479 -157 -873 -285 -902
-292 -74 -17 4 -11 258 21 152 19 289 35 304 35 29 0 31 2 -133 -148 -38 -34
-64 -62 -58 -62 6 0 72 18 149 39 464 132 789 221 803 221 5 0 -49 -57 -121
-127 -71 -69 -127 -128 -125 -131 3 -2 35 7 73 21 37 14 185 67 328 116 143
50 336 117 430 150 93 33 171 59 172 57 2 -1 -23 -27 -55 -56 -133 -125 -219
-210 -211 -210 7 0 798 256 1037 336 40 13 75 24 79 24 7 0 -45 -38 -201 -147
-66 -46 -115 -83 -109 -83 13 0 399 101 821 214 89 24 162 40 162 36 0 -4 -49
-51 -109 -106 -115 -104 -136 -129 -98 -115 56 22 856 355 902 376 17 7 53 22
80 33 28 11 145 59 260 107 116 48 257 106 315 130 58 24 166 69 240 100 74
31 159 66 188 77 29 12 51 23 49 24 -2 2 -55 -7 -118 -21 -195 -42 -833 -165
-836 -161 -5 4 53 103 75 129 12 13 12 17 2 17 -15 0 -170 -41 -750 -201 -217
-59 -395 -107 -397 -105 -2 1 33 37 76 79 71 69 83 77 118 77 86 0 225 68 317
154 44 41 76 41 76 1 0 -49 29 -50 194 -10 91 23 159 45 172 56 29 27 38 24
49 -13 7 -22 17 -34 32 -36 12 -2 83 26 159 63 75 36 137 64 138 63 48 -116
139 -145 270 -85 70 32 110 68 146 131 42 74 49 133 21 187 -19 36 -20 43 -7
53 8 6 32 63 52 126 98 309 247 662 340 808 36 56 43 89 20 98 -8 3 -18 19
-21 35 -8 35 -19 40 -142 69 -49 11 -123 29 -166 40 -91 23 -111 25 -125 7z
m243 -82 c61 -14 116 -28 123 -30 9 -3 1 -26 -28 -77 -100 -176 -206 -428
-307 -725 l-55 -163 -118 0 -117 0 103 388 c57 213 115 428 129 477 13 50 29
111 36 136 l11 47 56 -14 c32 -7 107 -25 167 -39z m-445 -19 c0 -2 -9 -46 -19
-97 -19 -91 -59 -321 -81 -464 -20 -133 -40 -310 -46 -420 -6 -99 -9 -112 -32
-135 -29 -29 -52 -79 -52 -113 0 -21 -18 -32 -140 -90 -78 -37 -142 -67 -144
-67 -2 0 8 47 22 105 14 58 23 107 21 110 -3 2 -29 -2 -58 -8 l-53 -12 -26
-82 -25 -81 -145 -36 c-79 -20 -146 -35 -147 -34 -2 2 16 57 40 123 24 66 124
347 223 625 99 278 183 512 187 521 4 10 40 27 88 42 45 14 145 46 222 70 136
44 165 51 165 43z m-799 -213 c35 -30 69 -94 69 -133 0 -17 -28 -57 -89 -127
-87 -99 -90 -101 -107 -82 -66 73 -223 -60 -342 -290 -60 -115 -82 -188 -82
-270 0 -53 4 -65 29 -93 26 -29 34 -32 84 -32 64 1 105 23 164 87 43 46 99
135 90 143 -4 4 -122 -38 -199 -71 -12 -5 -18 -3 -18 6 1 18 56 249 61 253 4
4 395 126 404 126 11 0 4 -32 -36 -156 -103 -323 -258 -547 -441 -637 -144
-71 -242 -67 -312 15 -58 67 -71 121 -71 288 1 326 103 582 314 790 131 128
281 208 393 209 47 1 62 -3 89 -26z m-621 -77 c-9 -24 -25 -85 -116 -426 -53
-197 -117 -471 -139 -595 -9 -49 -20 -98 -24 -108 -7 -20 -248 -141 -255 -129
-9 15 -106 324 -106 338 0 33 -17 10 -27 -38 -7 -29 -24 -105 -38 -168 -14
-63 -27 -124 -30 -135 -3 -14 -26 -29 -75 -49 -39 -16 -95 -43 -125 -62 -30
-18 -55 -29 -55 -24 0 32 225 972 281 1177 l31 112 134 45 134 45 -5 -337 c-3
-185 -3 -332 -1 -327 3 6 39 145 81 310 42 165 78 301 79 303 2 2 156 60 226
85 33 12 40 8 30 -17z m-749 -202 c-16 -60 -48 -176 -71 -259 -67 -241 -167
-645 -181 -731 -7 -43 -17 -84 -23 -90 -10 -11 -224 -104 -237 -104 -4 0 8 64
26 143 18 78 56 248 85 377 29 129 76 336 104 459 l52 224 134 52 c74 29 136
50 138 46 1 -4 -11 -56 -27 -117z m-327 -133 c-12 -83 -28 -158 -36 -169 -16
-23 -414 -512 -480 -591 -26 -31 -43 -57 -38 -59 5 -2 86 13 181 33 94 19 173
34 174 33 2 -2 -7 -72 -18 -156 -19 -137 -23 -153 -41 -157 -53 -13 -593 -115
-606 -115 -13 0 -14 23 -7 176 l8 175 102 123 c241 289 362 437 365 445 2 5
-14 5 -35 0 -103 -25 -193 -43 -197 -38 -2 2 -1 71 2 154 l7 149 35 8 c19 4
159 37 310 72 151 36 280 65 286 65 7 1 3 -51 -12 -148z m-811 -48 c-7 -65
-17 -156 -22 -203 -25 -226 -92 -799 -96 -826 -5 -29 -10 -32 -148 -77 -78
-26 -146 -47 -150 -47 -4 0 -7 40 -7 89 l0 90 -37 -6 c-21 -3 -41 -8 -45 -12
-4 -3 -14 -37 -22 -75 -8 -37 -18 -71 -22 -75 -8 -7 -275 -61 -300 -61 -10 0
46 161 291 840 35 96 75 211 91 255 15 44 32 85 38 92 8 9 401 128 437 132 3
1 -1 -52 -8 -116z m-707 46 c28 -7 54 -23 70 -42 25 -30 26 -36 21 -117 -8
-142 -78 -275 -213 -407 -41 -39 -74 -74 -74 -76 0 -2 23 -5 51 -6 121 -4 154
-63 109 -198 -66 -200 -196 -365 -361 -456 -110 -60 -300 -107 -437 -107 -46
0 -53 2 -48 18 24 74 182 877 227 1146 11 65 22 122 25 127 11 18 309 103 419
119 78 12 162 11 211 -1z m3117 -43 l24 -24 -98 -30 c-88 -26 -97 -27 -88 -11
14 26 98 89 120 89 10 0 29 -11 42 -24z m-337 -398 c-5 -23 -1 -37 13 -52 10
-12 21 -33 25 -48 6 -27 5 -28 -34 -28 l-40 0 6 43 c8 59 24 117 31 117 3 0 3
-14 -1 -32z m1352 21 c64 -22 80 -95 37 -178 -61 -121 -227 -190 -304 -125
-27 23 -31 32 -31 79 0 67 42 135 114 183 73 49 127 61 184 41z m-2707 -31
c-4 -13 -19 -76 -32 -141 -20 -100 -26 -117 -41 -114 -9 3 -47 -2 -84 -9 -37
-8 -72 -13 -77 -11 -9 3 222 295 235 296 4 1 4 -9 -1 -21z m-1380 -152 c-10
-31 -21 -60 -25 -63 -7 -7 -36 16 -36 29 0 10 72 99 77 94 2 -1 -5 -28 -16
-60z"/>
<path d="M5510 3817 c0 -2 -11 -39 -24 -83 -78 -255 -146 -478 -146 -481 0 -2
20 -3 45 -3 38 0 45 3 49 23 3 12 21 130 41 262 20 132 39 250 42 263 3 12 2
22 -1 22 -3 0 -6 -1 -6 -3z"/>
<path d="M2182 3062 c-40 -147 -72 -272 -72 -279 0 -8 11 -8 38 -1 l39 10 37
265 c20 146 35 267 33 269 -2 2 -36 -117 -75 -264z"/>
<path d="M1504 3203 c-18 -3 -25 -22 -49 -116 -15 -62 -29 -118 -32 -124 -10
-27 15 -10 82 55 92 88 127 135 123 164 -3 20 -9 23 -53 24 -27 1 -59 0 -71
-3z"/>
<path d="M1423 2724 c-58 -14 -63 -18 -63 -42 -1 -15 -7 -56 -15 -92 -7 -35
-11 -68 -9 -72 6 -10 125 45 181 84 65 44 93 78 90 108 -2 23 -6 25 -62 27
-33 1 -88 -5 -122 -13z"/>
</g>
</svg>
